<svg width="33" height="27" viewBox="0 0 33 27" fill="none" xmlns="http://www.w3.org/2000/svg">
<path fill-rule="evenodd" clip-rule="evenodd" d="M29.1058 9.625H29.7933C31.3121 9.625 32.5433 10.8562 32.5433 12.375C32.5433 12.7381 32.4714 13.0975 32.3318 13.4327L27.7485 24.4327C27.3215 25.4575 26.3202 26.125 25.21 26.125H6.00691C3.89591 26.125 2.12557 24.5312 1.90458 22.4318L0.0229995 4.55682C-0.215491 2.29117 1.42785 0.261155 3.69351 0.022665C3.83696 0.0075654 3.9811 0 4.12533 0H12.3023C12.8941 0 13.4196 0.378716 13.6067 0.940187L14.6683 4.125H26.6782C28.197 4.125 29.4282 5.35622 29.4282 6.875C29.4282 6.98903 29.4211 7.10295 29.4069 7.2161L29.1058 9.625ZM26.3344 9.625L26.6782 6.875H12.6862L11.3112 2.75H4.12533C4.07725 2.75 4.02921 2.75252 3.98139 2.75756C3.22617 2.83705 2.67839 3.51372 2.75789 4.26894L4.50084 20.827L8.46321 11.3173C8.8902 10.2925 9.89149 9.625 11.0017 9.625H26.3344ZM11.0017 12.375L6.41833 23.375H25.21L29.7933 12.375H11.0017Z" fill="#3949AB"/>
</svg>
