<svg width="32" height="32" viewBox="0 0 32 32" fill="none" xmlns="http://www.w3.org/2000/svg">
<path fill-rule="evenodd" clip-rule="evenodd" d="M28.8589 17.875C28.5001 25.5294 22.1806 31.625 14.4375 31.625C6.46389 31.625 0 25.1611 0 17.1875C0 9.44436 6.09563 3.12492 13.75 2.76608V1.375C13.75 0.615608 14.3656 0 15.125 0C24.2377 0 31.625 7.3873 31.625 16.5C31.625 17.2594 31.0094 17.875 30.25 17.875H28.8589V17.875ZM13.75 5.51989C7.61518 5.87575 2.75 10.9635 2.75 17.1875C2.75 23.6423 7.98267 28.875 14.4375 28.875C20.6615 28.875 25.7493 24.0098 26.1051 17.875H15.125C14.3656 17.875 13.75 17.2594 13.75 16.5V5.51989V5.51989ZM16.5 2.81789V15.125H28.8071C28.1621 8.62893 22.9961 3.46286 16.5 2.81789Z" fill="#999EA1"/>
</svg>
