<svg width="28" height="33" viewBox="0 0 28 33" fill="none" xmlns="http://www.w3.org/2000/svg">
<path fill-rule="evenodd" clip-rule="evenodd" d="M1.70849 0.352744L5.5 1.30062L9.19019 0.0705605C9.47243 -0.0235202 9.77757 -0.0235202 10.0598 0.0705605L13.75 1.30062L17.4402 0.0705605C17.7224 -0.0235202 18.0276 -0.0235202 18.3098 0.0705605L22 1.30062L25.7915 0.352744C26.5282 0.168565 27.2748 0.616486 27.4589 1.3532C27.4862 1.46227 27.5 1.57427 27.5 1.68669V31.1646C27.5 31.9239 26.8844 32.5396 26.125 32.5396C26.0126 32.5396 25.9006 32.5258 25.7915 32.4985L22 31.5506L18.3098 32.7807C18.0276 32.8748 17.7224 32.8748 17.4402 32.7807L13.75 31.5506L10.0598 32.7807C9.77757 32.8748 9.47243 32.8748 9.19019 32.7807L5.5 31.5506L1.70849 32.4985C0.971768 32.6827 0.225234 32.2348 0.0410541 31.498C0.0137876 31.389 0 31.277 0 31.1646V1.68669C0 0.927299 0.615608 0.31169 1.375 0.31169C1.48742 0.31169 1.59942 0.325478 1.70849 0.352744ZM2.75 3.44776V29.4035L4.83303 28.8827C5.34042 28.7559 5.87346 28.7764 6.36963 28.9417L9.625 30.0269L12.8804 28.9417C13.4449 28.7536 14.0551 28.7536 14.6196 28.9417L17.875 30.0269L21.1304 28.9417C21.6265 28.7764 22.1596 28.7559 22.667 28.8827L24.75 29.4035V3.44776L22.667 3.96851C22.1596 4.09536 21.6265 4.07489 21.1304 3.9095L17.875 2.82438L14.6196 3.9095C14.0551 4.09766 13.4449 4.09766 12.8804 3.9095L9.625 2.82438L6.36963 3.9095C5.87346 4.07489 5.34042 4.09536 4.83303 3.96851L2.75 3.44776ZM6.875 9.55062H20.625C21.3844 9.55062 22 10.1662 22 10.9256C22 11.685 21.3844 12.3006 20.625 12.3006H6.875C6.11561 12.3006 5.5 11.685 5.5 10.9256C5.5 10.1662 6.11561 9.55062 6.875 9.55062ZM6.875 15.0506H20.625C21.3844 15.0506 22 15.6662 22 16.4256C22 17.185 21.3844 17.8006 20.625 17.8006H6.875C6.11561 17.8006 5.5 17.185 5.5 16.4256C5.5 15.6662 6.11561 15.0506 6.875 15.0506ZM6.875 20.5506H20.625C21.3844 20.5506 22 21.1662 22 21.9256C22 22.685 21.3844 23.3006 20.625 23.3006H6.875C6.11561 23.3006 5.5 22.685 5.5 21.9256C5.5 21.1662 6.11561 20.5506 6.875 20.5506Z" fill="#3949AB"/>
</svg>
